<svg version="1.1" id="Layer_1" xmlns="http://www.w3.org/2000/svg" xmlns:xlink="http://www.w3.org/1999/xlink" x="0px" y="0px"
	 width="100%" viewBox="0 0 1024 1024" enable-background="new 0 0 1024 1024" xml:space="preserve">
<path fill="#000000" opacity="1.000000" stroke="none" 
	d="
M638.755737,353.869202 
	C654.568359,353.764313 670.114929,352.201782 685.263489,356.756378 
	C700.694458,361.395813 713.724548,369.574158 723.527832,382.566803 
	C726.982849,387.145752 728.082031,392.784302 730.425049,398.713654 
	C737.538513,391.933350 744.379150,385.933746 749.586670,378.320190 
	C751.764038,375.136932 749.262573,374.314331 747.185791,373.228699 
	C738.308228,368.587982 731.687683,361.761353 727.654114,352.590607 
	C723.898193,344.051086 725.088745,342.267456 734.369934,341.801697 
	C735.018555,341.769135 735.661743,341.630005 736.571228,341.503845 
	C737.198303,338.170441 734.921265,335.064026 735.665710,331.976135 
	C736.988098,331.176666 737.917969,331.770294 738.637756,332.374908 
	C747.011475,339.408905 756.525085,338.581390 766.163330,336.279968 
	C774.926941,334.187347 783.521423,333.662415 792.114075,337.141174 
	C796.547668,338.936127 801.028442,336.933685 805.398743,336.329956 
	C814.955933,335.009705 824.449341,333.202148 833.939758,331.437744 
	C836.864807,330.893921 839.522217,331.058105 840.749817,333.959137 
	C842.096130,337.140717 839.632507,338.910004 837.265198,340.257294 
	C832.489075,342.975555 827.632996,345.554810 822.782715,348.140350 
	C820.951538,349.116516 819.297363,350.123596 819.307373,352.544861 
	C819.352783,363.541595 819.369873,374.538422 819.435547,385.535034 
	C819.438171,385.968658 819.831726,386.399963 820.165710,387.083099 
	C824.441711,386.625580 827.863892,384.118225 831.384888,382.149506 
	C843.489319,375.381348 849.023193,382.060303 851.389465,391.839478 
	C853.987915,402.577576 851.237976,409.873535 841.669556,417.623352 
	C845.232239,424.883026 848.863281,432.306732 850.797119,440.423920 
	C854.986572,458.009521 850.238770,474.083954 837.846497,483.243073 
	C824.901306,492.810913 808.480835,493.500244 794.669312,485.055756 
	C782.446594,477.582642 775.586609,461.492462 777.999207,446.414642 
	C779.621094,436.278687 783.145996,426.845856 788.379456,417.801758 
	C780.598572,412.255280 777.108582,404.944000 777.675110,395.744843 
	C777.840881,393.054169 778.434692,390.475922 779.529907,388.014191 
	C783.412598,379.286682 788.518982,377.440735 797.130066,381.504211 
	C801.255615,383.450928 804.945312,386.412109 810.235168,387.648987 
	C810.235168,376.704224 810.235168,366.394226 810.235168,355.652649 
	C806.592102,356.324402 803.106812,357.560760 801.462830,360.265717 
	C795.624817,369.871826 786.653809,376.496429 779.058777,384.353333 
	C762.095642,401.901184 750.178711,422.021088 744.085449,445.663910 
	C742.089783,453.407227 739.424683,460.953552 735.081848,467.786072 
	C726.387268,481.465088 713.304626,487.890381 697.819946,490.247253 
	C694.495850,490.753174 691.242554,491.137512 688.458923,493.286377 
	C687.718872,493.857635 686.492310,494.471558 685.739014,494.242828 
	C681.044617,492.817352 678.623169,496.026581 676.117859,498.838989 
	C666.144592,510.034912 656.209778,521.270630 648.138306,533.982239 
	C647.267761,535.353271 646.022949,536.581665 646.089600,538.398071 
	C647.451111,540.124084 649.479919,540.579407 651.270386,541.369141 
	C665.110901,547.473450 673.265442,557.690125 674.290833,573.067139 
	C675.412048,589.879700 669.254028,603.012329 654.421997,611.551941 
	C644.280090,617.391235 632.989136,618.494324 621.605530,618.944397 
	C617.659119,619.100403 613.701355,618.969238 609.099915,618.969238 
	C609.099915,626.804688 609.102295,634.091003 609.099182,641.377319 
	C609.096497,647.710205 609.038574,654.043640 609.100830,660.375854 
	C609.135559,663.904541 607.693237,665.586304 604.004883,665.418030 
	C600.179810,665.243530 596.333618,665.240051 592.509338,665.424255 
	C588.740723,665.605774 587.596313,663.862793 587.631470,660.324463 
	C587.748962,648.492920 587.534668,636.656921 587.749390,624.828186 
	C587.824280,620.704956 586.869995,618.431946 582.273865,618.813477 
	C579.379333,619.053833 578.028870,617.415466 578.052490,614.541565 
	C578.084045,610.708923 578.133240,606.874084 578.039673,603.043457 
	C577.947632,599.278259 579.520447,597.448364 583.419312,597.771729 
	C585.830078,597.971680 587.672119,597.441711 587.661804,594.342590 
	C587.607666,578.032166 587.636475,561.721375 587.636475,544.940674 
	C583.727661,545.976807 580.839844,548.032837 578.670654,550.521606 
	C576.437683,553.083618 579.194580,555.821899 579.883850,558.423889 
	C580.664185,561.369141 581.864868,564.036194 578.553711,566.415039 
	C576.355896,567.994019 574.519958,568.567017 572.304688,566.758118 
	C571.015076,565.705078 569.541199,564.852051 568.364075,563.692017 
	C565.555176,560.923767 562.937439,561.154602 560.142029,563.716919 
	C556.470947,567.081726 552.726868,570.543213 548.033936,564.623413 
	C546.660706,567.866272 547.199585,570.374268 547.152649,572.803955 
	C546.795593,591.285767 547.330933,609.762756 546.498230,628.259888 
	C545.197388,657.154297 518.037598,675.507385 491.402252,664.534729 
	C476.436188,658.369385 469.349579,645.681152 468.036346,630.441467 
	C465.487335,600.860840 467.543793,571.153625 467.005981,541.505554 
	C466.932800,537.473877 468.736725,535.749329 472.759125,535.958069 
	C475.916718,536.121948 479.090607,535.947388 482.256744,535.977051 
	C488.659760,536.036987 489.123230,536.487732 489.125244,542.772461 
	C489.133606,568.771118 489.112091,594.769714 489.138885,620.768372 
	C489.143494,625.255432 489.076294,629.741760 490.418243,634.137268 
	C492.949127,642.427307 498.427246,646.708984 506.837097,646.730347 
	C515.724365,646.752930 521.230652,642.719482 523.757751,634.156128 
	C525.033386,629.833374 525.669556,625.407288 525.661499,620.863464 
	C525.615051,594.698303 525.741638,568.532166 525.548462,542.368286 
	C525.513489,537.638794 526.886902,535.559204 531.735901,535.990234 
	C538.547791,536.595764 545.340149,534.786133 552.167480,535.673889 
	C556.392517,536.223206 556.825256,533.077087 557.826965,530.182800 
	C558.934753,526.982117 558.562927,522.493042 564.037781,522.597290 
	C566.964417,522.653015 568.849731,523.489502 569.424316,526.523926 
	C569.608887,527.499268 570.136292,528.416443 570.273499,529.392944 
	C571.036865,534.823853 573.937988,536.660278 579.294678,535.346191 
	C581.635193,534.772095 584.321777,534.436768 586.221924,536.794434 
	C586.661072,537.339355 586.979553,537.713562 587.834534,537.369629 
	C594.431335,534.716125 601.380615,535.905334 608.066040,536.279480 
	C617.655273,536.816101 626.280396,534.727173 634.857788,530.707031 
	C639.838318,528.372559 643.713440,525.438110 647.056030,521.005310 
	C654.256287,511.456848 662.062805,502.365540 669.988525,492.636261 
	C666.056580,493.393494 662.995728,494.892242 660.095459,496.765381 
	C650.722717,502.818756 641.381470,508.921234 631.983337,514.934875 
	C629.774902,516.348083 627.405334,518.195618 624.777405,515.723633 
	C622.377625,513.466431 622.381165,510.716522 623.675781,507.906647 
	C625.413147,504.135834 626.783447,501.013000 623.595581,496.634949 
	C620.692261,492.647766 623.691345,487.931152 626.476074,484.315979 
	C628.447876,481.756134 629.586121,479.953308 627.490112,476.554810 
	C624.577087,471.831543 626.455383,466.451660 631.675293,462.720032 
	C634.913452,460.405090 638.384033,458.353455 641.937561,456.553223 
	C651.808411,451.552612 661.107971,445.767120 668.884277,437.796387 
	C670.455566,436.185852 672.518005,434.863983 673.047607,432.064117 
	C668.337402,430.475891 663.330200,430.047913 658.993896,427.358826 
	C653.857971,424.173920 650.619141,419.760040 649.151062,414.074768 
	C648.079041,409.922974 647.533752,405.661957 653.891296,403.761383 
	C649.233582,399.793823 644.634766,396.725952 642.620300,391.351654 
	C639.786316,383.790741 640.414124,380.821167 646.495667,377.920807 
	C641.723328,372.618286 637.885132,366.884888 637.372559,359.607300 
	C637.233582,357.633636 636.597778,355.613464 638.755737,353.869202 
M694.571594,452.157379 
	C701.000916,454.411804 701.263916,454.900757 698.178040,460.929047 
	C696.512390,464.182892 694.400879,467.207855 692.722717,470.456085 
	C690.266174,475.210724 685.887512,478.794403 683.783020,484.424652 
	C687.610535,483.642456 689.681274,481.405640 691.817017,479.378571 
	C699.184448,472.386047 706.933533,465.758545 713.427307,457.907227 
	C716.102173,454.673157 718.515259,456.182556 720.710144,457.964874 
	C723.368225,460.123230 720.918091,461.800598 719.572144,463.300354 
	C714.889099,468.518494 710.112549,473.652588 704.748352,479.497681 
	C721.964417,474.761200 730.620544,463.175415 734.550049,447.738464 
	C741.099121,422.010986 752.792725,399.207214 771.391663,380.125061 
	C777.667419,373.686249 784.470032,367.726868 790.390686,360.985229 
	C797.067078,353.382996 794.268372,345.377869 784.417297,343.694580 
	C773.374084,341.807648 762.896484,345.835419 752.000122,347.199432 
	C752.779968,350.212097 754.758362,350.869080 756.518677,351.705109 
	C764.376343,355.436859 765.279724,357.321350 763.659851,365.912872 
	C761.257874,378.652954 753.685547,388.179108 744.778625,396.970520 
	C737.615967,404.040253 729.196777,410.185852 726.535278,420.744202 
	C726.341003,421.514709 725.763672,422.223846 725.251343,422.872131 
	C723.893127,424.591125 722.937439,427.500031 719.903931,425.240204 
	C717.467773,423.425293 715.885681,421.531403 718.176025,418.175629 
	C722.375977,412.022003 722.643555,405.061005 721.065735,398.008636 
	C718.051880,384.537415 707.891541,377.200714 696.955505,370.833282 
	C683.215332,362.833252 667.943970,361.665314 652.471313,361.848511 
	C650.703857,361.869415 648.516052,361.044037 647.535156,363.133759 
	C646.655823,365.007050 648.014526,366.674927 649.099243,368.132172 
	C653.152405,373.577301 658.690552,375.456177 665.324585,374.970856 
	C668.372498,374.747864 671.586487,374.834198 671.835632,379.193909 
	C672.078979,383.452393 669.174194,383.675598 665.984680,384.229858 
	C660.856018,385.121063 655.448792,384.867310 650.560547,387.151703 
	C652.869812,393.497986 658.368958,397.381622 665.206604,397.584015 
	C669.702026,397.717102 674.203491,397.667755 678.702209,397.664062 
	C681.564209,397.661743 682.364929,399.281708 682.357361,401.853760 
	C682.349854,404.385254 681.597107,406.147919 678.767151,406.177734 
	C672.262878,406.246277 666.577332,409.310181 660.518799,411.019836 
	C657.053223,411.997772 657.304932,413.786224 658.836365,416.163696 
	C661.689453,420.592896 665.966858,422.594574 671.036865,422.851501 
	C676.024597,423.104248 681.030823,422.969452 686.025269,423.123383 
	C687.960388,423.183014 689.700195,423.902466 690.045532,426.134155 
	C690.324524,427.937531 690.744751,430.710205 688.890930,431.061035 
	C682.751404,432.222778 681.128235,437.950012 677.401855,441.481934 
	C667.801086,450.581696 657.751038,458.980804 645.377075,464.140808 
	C642.597778,465.299774 640.012634,466.818817 637.682312,468.742371 
	C636.526245,469.696564 635.033447,470.698853 635.778381,472.403961 
	C636.661682,474.425842 638.518005,473.950500 640.109253,473.338531 
	C641.935547,472.636230 643.713928,472.050720 644.893127,474.198151 
	C645.758789,475.774719 646.814087,477.426849 645.945129,479.368286 
	C645.328979,480.744934 643.366211,480.962646 642.976196,482.882111 
	C643.250488,483.263184 643.580444,483.827393 644.009949,484.301422 
	C647.222900,487.847504 648.075806,491.075531 643.142517,493.984741 
	C641.897095,494.719208 640.513733,495.889160 640.808960,498.105042 
	C641.795166,497.784515 642.487122,497.699829 643.022400,497.364746 
	C652.190308,491.626648 661.119263,485.451263 671.804626,482.636810 
	C672.960510,482.332336 673.988159,481.143982 674.844910,480.164185 
	C680.898804,473.240479 686.226562,465.818542 690.255920,457.505646 
	C691.180115,455.599121 691.707153,453.362946 694.571594,452.157379 
M635.977783,596.652405 
	C636.931396,596.357849 637.893372,596.087891 638.837280,595.765076 
	C648.796326,592.359375 653.057861,586.055542 652.686829,575.295898 
	C652.399170,566.955811 647.074524,561.245972 637.358948,558.688965 
	C629.156921,556.530273 620.804199,557.407654 612.498657,557.278198 
	C610.221985,557.242737 609.145142,558.364136 609.148315,560.630005 
	C609.163879,571.793945 609.178589,582.957825 609.157166,594.121765 
	C609.152405,596.590637 610.207886,597.856201 612.747131,597.775452 
	C620.219788,597.537659 627.745056,598.491699 635.977783,596.652405 
M803.088928,461.310974 
	C798.086731,461.757568 792.963928,460.796661 787.927002,461.998291 
	C791.485596,476.139008 804.088562,483.592285 820.457153,481.746155 
	C831.846741,480.461639 843.274170,468.051666 843.678284,456.398193 
	C844.151489,442.750366 839.854797,430.517303 832.241150,419.375458 
	C831.006958,417.569305 829.888672,415.310303 826.331421,414.739655 
	C826.331421,420.691223 826.340881,426.434448 826.329590,432.177612 
	C826.297058,448.737885 819.955505,456.977875 803.088928,461.310974 
M794.112183,441.405518 
	C795.023926,440.997192 795.903381,440.348419 796.852783,440.221191 
	C801.578308,439.588074 803.769165,437.021423 804.742188,432.270721 
	C805.757874,427.311462 809.593994,424.079926 814.081909,421.800934 
	C817.431458,420.100067 819.309021,414.096497 817.528748,410.822845 
	C816.659363,409.224213 809.344055,408.139557 807.412720,409.609283 
	C795.838440,418.417328 790.050110,430.529297 787.019653,445.420624 
	C789.774109,443.853180 791.618958,442.803375 794.112183,441.405518 
M801.225708,393.380951 
	C799.329285,392.368591 797.447510,391.327667 795.533813,390.349121 
	C789.362000,387.193237 786.810425,388.640259 786.320740,395.606018 
	C786.216736,397.086151 786.232544,398.588287 786.348755,400.068024 
	C786.908630,407.192841 789.581604,408.791595 795.846802,405.789398 
	C797.337708,405.074951 798.857971,404.400696 800.274475,403.556427 
	C804.481201,401.049133 804.914917,398.201569 801.225708,393.380951 
M832.043884,391.553192 
	C829.236328,393.195099 825.994873,394.221344 826.266663,398.671661 
	C826.524536,402.894745 829.874023,403.377441 832.494812,404.870422 
	C833.214417,405.280365 833.992859,405.585999 834.737122,405.953979 
	C839.984009,408.548035 841.584717,407.869476 843.213013,402.183289 
	C843.571899,400.930023 843.656799,399.569580 843.684265,398.254669 
	C843.885254,388.652771 841.083130,386.871796 832.043884,391.553192 
M739.528137,355.912750 
	C743.659851,360.372223 747.681274,364.990540 754.008789,366.363831 
	C756.348999,363.238953 756.077637,360.936584 752.725464,359.279083 
	C749.408325,357.638824 746.653931,355.263367 744.094543,352.637909 
	C742.240723,350.736237 740.230042,349.643890 737.706116,351.036102 
	C737.158325,353.025146 738.323181,354.119476 739.528137,355.912750 
M817.866028,433.257538 
	C817.708252,432.346191 818.201660,431.264374 817.180725,430.573700 
	C811.562012,434.042267 810.278992,440.782501 814.521851,444.972412 
	C817.362183,441.825592 818.059631,438.056885 817.866028,433.257538 
M803.863464,447.491943 
	C800.074097,447.879974 796.348694,448.391235 793.796509,452.311340 
	C797.170593,453.162170 799.968628,452.926575 802.696533,452.516785 
	C805.834351,452.045380 807.375793,450.626190 803.863464,447.491943 
M550.670776,551.950134 
	C550.291016,550.317200 549.441467,549.297485 547.428894,549.536560 
	C546.749451,553.096497 547.206055,556.566223 548.262085,560.150757 
	C549.056152,557.648865 549.850281,555.147034 550.670776,551.950134 
M812.415833,398.409302 
	C813.248169,400.845367 814.814270,401.450409 816.829407,399.857422 
	C818.021545,398.915009 817.974854,397.390533 816.810974,396.462036 
	C814.924377,394.957001 813.218750,395.049927 812.415833,398.409302 
M809.156982,344.388794 
	C807.059204,344.780579 804.941895,345.093323 802.873108,345.602783 
	C802.036499,345.808777 801.460205,346.633606 801.978577,347.518463 
	C802.247009,347.976746 802.961548,348.348846 803.520447,348.425507 
	C804.699280,348.587250 808.303284,346.114532 809.156982,344.388794 
z"/>
<path fill="#000000" opacity="1.000000" stroke="none" 
	d="
M363.268005,660.897583 
	C339.276672,648.115051 326.473328,628.384094 325.959290,601.625977 
	C325.244720,564.431152 352.496094,538.006714 384.179138,533.867676 
	C415.678131,529.752686 444.165497,544.063721 456.695343,571.228699 
	C467.789825,595.281677 465.842041,618.825806 450.282379,640.671509 
	C448.009674,643.862366 447.971680,645.607971 450.778625,648.540771 
	C458.547974,656.658447 459.073395,654.173096 450.553558,662.843872 
	C442.910217,670.622681 442.742767,670.685303 435.094727,662.525940 
	C432.107635,659.339172 429.919189,658.567810 425.425262,660.605103 
	C405.023743,669.854248 384.283600,670.655396 363.268005,660.897583 
M412.352570,557.090210 
	C405.903534,554.380676 399.131989,554.068726 392.251770,554.174988 
	C361.034058,554.656982 338.375824,585.274658 351.224976,618.884888 
	C359.324921,640.072388 380.480560,649.763733 403.538422,646.163574 
	C407.178711,645.595215 411.087860,645.223877 415.255737,641.155762 
	C411.871429,638.310974 408.684143,635.667419 405.538055,632.975647 
	C403.118927,630.905945 403.176697,628.919556 405.581085,626.731079 
	C408.411926,624.154419 411.190552,621.486206 413.709442,618.610291 
	C416.409485,615.527588 418.542938,615.476196 421.412689,618.545532 
	C424.737885,622.101990 427.968475,625.889221 432.045441,628.589172 
	C451.553375,607.606750 441.177673,569.772705 412.352570,557.090210 
z"/>
<path fill="#000000" opacity="1.000000" stroke="none" 
	d="
M321.831726,386.016266 
	C340.565338,396.321960 344.650085,422.822876 331.423920,438.661194 
	C329.480865,440.987946 329.374512,442.555389 331.727081,444.896759 
	C342.644257,455.762024 344.763031,468.945587 340.329254,483.164398 
	C336.170685,496.500458 326.113770,503.521820 312.920319,506.679504 
	C299.965393,509.780151 286.795319,509.072998 273.662476,509.113129 
	C269.165771,509.126892 264.657257,508.912140 260.175537,509.171539 
	C255.544479,509.439606 253.972351,507.361023 254.007629,502.974060 
	C254.118774,489.151672 254.053711,475.327759 254.037231,461.504456 
	C254.028870,454.486511 254.023468,454.301270 247.143478,453.795471 
	C243.400894,453.520355 241.636810,452.128540 241.955338,448.286499 
	C242.106140,446.467316 241.971603,444.624695 241.971451,442.792694 
	C241.970764,433.932495 241.955719,433.797546 250.601868,432.793152 
	C254.048355,432.392792 253.969315,430.210480 253.974014,427.832367 
	C253.999374,415.008362 254.002625,402.184357 254.017899,389.360352 
	C254.019684,387.861725 254.060028,386.363098 254.062668,384.864441 
	C254.069153,381.192169 255.639313,379.508362 259.563873,379.645874 
	C274.191986,380.158356 288.848083,378.909332 303.471710,380.549805 
	C309.846527,381.264923 315.922424,382.622528 321.831726,386.016266 
M319.588898,475.979767 
	C322.182465,462.751801 315.888214,454.615295 302.342651,454.000427 
	C294.698700,453.653442 287.034760,453.764984 279.385834,453.498535 
	C276.214478,453.388031 275.336670,454.879822 275.358002,457.722839 
	C275.422913,466.379730 275.456726,475.038635 275.328369,483.694214 
	C275.282684,486.775848 276.575684,487.803345 279.500305,487.758362 
	C286.824158,487.645691 294.173676,488.051788 301.469543,487.579803 
	C309.130615,487.084137 316.501343,485.417114 319.588898,475.979767 
M312.463867,427.968597 
	C317.597900,422.866150 317.957703,416.670532 315.790771,410.369507 
	C313.638489,404.111237 308.193542,401.911133 302.096100,401.142212 
	C294.804138,400.222656 287.466248,400.499207 280.141144,400.365570 
	C276.366699,400.296753 275.226532,401.888184 275.315826,405.470062 
	C275.498474,412.795380 275.512360,420.132965 275.298340,427.456818 
	C275.187469,431.250946 276.347504,432.964569 280.378143,432.815521 
	C286.700409,432.581757 293.039551,432.835785 299.365753,432.666962 
	C303.924744,432.545319 308.261780,431.443390 312.463867,427.968597 
z"/>
<path fill="#000000" opacity="1.000000" stroke="none" 
	d="
M528.128601,447.937378 
	C544.957886,471.093109 533.926941,500.408661 506.431519,506.723999 
	C493.450623,509.705566 480.298523,509.012634 467.169464,509.078125 
	C462.840424,509.099701 458.500519,508.899780 454.185028,509.144257 
	C449.486420,509.410370 447.616089,507.602570 447.687225,502.787354 
	C447.893829,488.803894 447.585907,474.811676 447.879730,460.831329 
	C447.984558,455.841888 446.751038,453.249207 441.334991,453.729797 
	C437.113434,454.104370 435.199860,452.099579 435.727692,447.764252 
	C435.947449,445.959534 435.760773,444.105591 435.762482,442.274048 
	C435.770386,433.835327 435.755646,433.685516 444.300903,432.818237 
	C447.742371,432.468964 447.735382,430.416077 447.735413,427.973969 
	C447.735596,414.154083 447.731781,400.334167 447.772247,386.514374 
	C447.791382,379.979004 448.049652,379.618317 454.504395,379.742950 
	C468.635040,380.015778 482.772247,379.045013 496.902588,380.588165 
	C511.443970,382.176208 523.451721,387.692505 529.458740,401.718658 
	C535.378479,415.540955 533.650574,428.713257 523.587280,440.368530 
	C523.271179,440.734680 523.091736,441.218750 522.783447,441.762695 
	C523.716431,444.375916 526.615784,445.338989 528.128601,447.937378 
M474.348755,453.617432 
	C471.624542,453.306152 469.250183,453.407471 469.267303,457.144379 
	C469.308472,466.125000 469.291443,475.105927 469.283020,484.086731 
	C469.281067,486.159851 469.838013,487.781189 472.300659,487.716980 
	C482.084198,487.461914 491.942688,488.774231 501.634247,486.618286 
	C509.229736,484.928589 513.493958,479.710419 513.770996,472.219757 
	C514.171570,461.389160 508.570984,454.857849 497.648926,454.135376 
	C490.193298,453.642212 482.692841,453.826782 474.348755,453.617432 
M502.381653,402.929230 
	C492.410400,399.062775 482.017059,400.591949 471.752075,400.585480 
	C469.502747,400.584076 469.271271,402.369385 469.274658,404.163269 
	C469.290314,412.488525 469.317413,420.813965 469.274933,429.138977 
	C469.262238,431.632446 470.313446,432.820099 472.844513,432.794189 
	C480.169464,432.719086 487.515625,433.025940 494.814850,432.567932 
	C503.159698,432.044189 508.664062,427.511383 510.333954,420.728424 
	C512.124268,413.456482 509.685638,407.609619 502.381653,402.929230 
z"/>
<path fill="#000000" opacity="1.000000" stroke="none" 
	d="
M397.166382,378.553711 
	C413.060028,383.729462 423.605743,398.619415 423.962708,417.262787 
	C424.396179,439.904907 424.195862,462.559021 424.284882,485.207886 
	C424.310730,491.790558 424.345093,492.074341 430.859772,491.830566 
	C435.997070,491.638306 437.475281,493.684814 437.371460,498.595795 
	C437.150085,509.063538 437.360046,509.085541 426.647858,509.090485 
	C402.332336,509.101715 378.016815,509.099976 353.701294,509.089691 
	C347.065826,509.086884 346.745087,508.759460 346.740173,501.962189 
	C346.721710,476.314362 346.704437,450.666534 346.717926,425.018707 
	C346.723969,413.547241 348.054077,402.308960 354.923889,392.660522 
	C364.918640,378.623199 380.069366,373.629272 397.166382,378.553711 
M366.058624,408.668945 
	C365.488434,411.433746 364.440674,414.195557 364.423065,416.963867 
	C364.272614,440.626617 364.327759,464.290680 364.263611,487.954163 
	C364.256226,490.674347 365.312805,491.921936 368.081421,491.911224 
	C379.579803,491.866669 391.078552,491.858551 402.576813,491.914337 
	C405.489075,491.928497 406.794098,490.795197 406.784210,487.773041 
	C406.706909,464.109558 407.057220,440.437622 406.503082,416.786438 
	C406.303040,408.248138 403.785706,399.753876 395.024719,395.424805 
	C385.640503,390.787720 370.673248,392.682922 366.058624,408.668945 
z"/>
<path fill="#000000" opacity="1.000000" stroke="none" 
	d="
M274.312500,573.997803 
	C274.315491,577.995728 274.490204,581.506226 274.271912,584.992126 
	C274.053467,588.480103 275.408569,589.697083 278.879608,589.651672 
	C289.543427,589.511963 300.212799,589.749573 310.875153,589.563293 
	C314.937317,589.492371 316.722473,590.810059 316.411499,595.008789 
	C316.165955,598.323669 316.202332,601.680908 316.402924,605.001831 
	C316.636047,608.862122 315.115753,610.368591 311.194855,610.308044 
	C300.698212,610.145813 290.194611,610.398621 279.699493,610.193054 
	C275.638702,610.113586 274.078339,611.367859 274.227875,615.589294 
	C274.510864,623.578796 274.489929,631.590393 274.249359,639.582397 
	C274.131073,643.512146 275.449585,644.808350 279.391998,644.757935 
	C293.888519,644.572693 308.390991,644.821350 322.886536,644.600769 
	C327.406769,644.531982 329.162506,645.983398 329.074890,650.590088 
	C328.733795,668.523499 330.903107,665.164673 314.770691,665.344666 
	C296.107788,665.552979 277.438995,665.254272 258.776611,665.485229 
	C253.896317,665.545593 252.497971,663.853699 252.575317,659.130493 
	C252.815384,644.468994 252.553818,629.799866 252.711014,615.136108 
	C252.750748,611.430725 251.516983,610.176697 247.822311,610.191528 
	C240.653244,610.220398 240.652084,610.038635 240.631393,603.057495 
	C240.628418,602.057556 240.599518,601.056335 240.638626,600.057922 
	C240.755585,597.071899 240.044861,593.668884 241.248474,591.206421 
	C242.789383,588.053833 246.664017,589.971741 249.493713,589.666870 
	C253.045715,589.284119 252.627640,586.821228 252.634369,584.533752 
	C252.675110,570.701599 252.889252,556.864624 252.582199,543.039551 
	C252.472015,538.079224 254.027100,536.075623 258.977203,536.108887 
	C273.808167,536.208740 288.640717,536.152039 303.472076,536.060913 
	C307.679016,536.035095 309.600433,537.732239 309.251587,542.077271 
	C309.012268,545.057861 308.997162,548.090820 309.250946,551.068909 
	C309.671417,556.003174 307.375641,557.460022 302.756683,557.312073 
	C295.098450,557.066711 287.422028,557.403015 279.762512,557.178528 
	C275.775299,557.061768 273.887726,558.196716 274.248871,562.505676 
	C274.553986,566.146484 274.311829,569.833252 274.312500,573.997803 
z"/>
<path fill="#000000" opacity="1.000000" stroke="none" 
	d="
M560.005249,402.000244 
	C560.057007,414.832428 559.839966,427.173981 560.267395,439.493164 
	C560.500183,446.201843 561.834290,452.952240 568.538818,456.685638 
	C580.820801,463.524841 594.499695,456.065094 595.593018,441.488464 
	C596.364136,431.207825 595.989868,420.839111 596.066650,410.509247 
	C596.126099,402.509857 596.024231,394.508911 596.120789,386.510193 
	C596.199890,379.957001 596.525940,379.702454 602.857056,379.671295 
	C606.356934,379.654083 609.862793,379.802307 613.355164,379.640747 
	C616.833984,379.479797 618.161316,381.085541 618.121826,384.397766 
	C617.885376,404.211060 619.430237,424.108063 617.063782,443.813721 
	C615.238037,459.016846 607.983215,471.276978 592.776672,477.110718 
	C589.919312,478.206879 588.939331,479.836853 588.974792,482.684845 
	C589.055725,489.183563 589.021545,495.684265 588.978027,502.183777 
	C588.934387,508.695953 588.555542,509.068420 582.272339,509.116058 
	C578.939331,509.141357 575.601562,509.008331 572.273865,509.143127 
	C568.647888,509.290100 567.107361,507.630829 567.123291,504.088104 
	C567.154846,497.088715 566.991882,490.087494 567.096436,483.089844 
	C567.142334,480.013947 566.056580,478.330261 563.083313,477.112457 
	C547.734924,470.826080 540.574280,458.420410 538.816956,442.672852 
	C536.687012,423.585724 538.313538,404.385376 537.822144,385.243164 
	C537.708496,380.814056 539.474609,379.281342 543.748047,379.615509 
	C547.226868,379.887482 550.761658,379.897858 554.239014,379.618164 
	C558.741394,379.256073 560.135864,381.391724 560.031738,385.501617 
	C559.896729,390.831299 560.002808,396.167114 560.005249,402.000244 
z"/>
<path fill="#000000" opacity="1.000000" stroke="none" 
	d="
M553.645569,649.994751 
	C553.646729,629.026245 553.771729,608.555603 553.557068,588.088501 
	C553.506958,583.312012 555.003113,581.376404 559.811279,581.802551 
	C562.948303,582.080627 566.140198,582.005920 569.289978,581.809143 
	C573.575256,581.541321 575.256042,583.315552 575.199036,587.637146 
	C575.027649,600.615112 575.101074,613.596436 575.098511,626.576477 
	C575.096375,637.227173 575.146301,647.877930 575.126282,658.528564 
	C575.115051,664.541260 574.694580,664.908997 568.512085,664.975708 
	C568.345642,664.977539 568.179260,664.973816 568.012817,664.974548 
	C553.625244,665.040100 553.625244,665.040161 553.645569,649.994751 
z"/>
<path fill="#000000" opacity="1.000000" stroke="none" 
	d="
M706.931274,384.071960 
	C715.886536,393.555664 718.032593,402.502808 713.535339,411.388397 
	C712.722229,412.994934 712.211121,415.839325 709.484924,414.587494 
	C707.290710,413.579956 704.643982,411.744202 705.771362,408.861145 
	C710.118347,397.744324 703.598999,391.659973 695.657776,386.227875 
	C692.776306,384.256836 690.578491,382.516907 692.958923,378.661774 
	C694.330078,376.441223 695.844116,376.085999 697.898132,377.289703 
	C701.059509,379.142365 704.096252,381.181335 706.931274,384.071960 
z"/>
<path fill="#000000" opacity="1.000000" stroke="none" 
	d="
M774.325623,348.513763 
	C775.789246,346.460297 777.327942,345.402100 779.542480,346.398376 
	C781.171082,347.131042 782.139954,348.403992 782.105225,350.228729 
	C782.074402,351.847565 781.142029,353.003632 779.757263,353.716461 
	C776.894836,355.189789 774.694275,353.263062 774.325623,348.513763 
z"/>
<path fill="#000000" opacity="1.000000" stroke="none" 
	d="
M834.267761,465.047424 
	C830.564331,470.737976 825.728821,474.246246 819.453613,475.739288 
	C817.134644,476.291016 814.993958,476.348389 814.433777,473.413818 
	C813.980347,471.039001 814.001343,468.471558 816.960510,467.758636 
	C823.435486,466.198700 827.334351,462.259003 828.953552,455.861176 
	C829.774231,452.618622 832.341431,452.488708 834.908813,453.065216 
	C837.882690,453.733032 837.553284,456.240204 837.024963,458.295441 
	C836.455688,460.510345 835.322693,462.580322 834.267761,465.047424 
z"/>
</svg>